<mxfile host="Electron" modified="2023-09-19T03:37:00.465Z" agent="Mozilla/5.0 (X11; Linux x86_64) AppleWebKit/537.36 (KHTML, like Gecko) draw.io/21.6.8 Chrome/114.0.5735.289 Electron/25.5.0 Safari/537.36" etag="CSEP1tpXt2ab_4rbmJLk" version="21.6.8" type="device" pages="2">
  <diagram name="Overview" id="3NjpGC_zWbmAMM6vz58M">
    <mxGraphModel dx="880" dy="595" grid="1" gridSize="10" guides="1" tooltips="1" connect="1" arrows="1" fold="1" page="1" pageScale="1" pageWidth="850" pageHeight="1100" math="0" shadow="0">
      <root>
        <mxCell id="0" />
        <mxCell id="1" parent="0" />
        <mxCell id="kSAwd3NwiPWOxCACqnkx-1" value="dev.rayh.cliente.App&lt;br&gt;" style="verticalAlign=top;align=left;spacingTop=8;spacingLeft=2;spacingRight=12;shape=cube;size=10;direction=south;fontStyle=4;html=1;whiteSpace=wrap;" vertex="1" parent="1">
          <mxGeometry x="320" y="40" width="120" height="80" as="geometry" />
        </mxCell>
        <mxCell id="kSAwd3NwiPWOxCACqnkx-2" value="Servidor" style="verticalAlign=top;align=left;spacingTop=8;spacingLeft=2;spacingRight=12;shape=cube;size=10;direction=south;fontStyle=4;html=1;whiteSpace=wrap;" vertex="1" parent="1">
          <mxGeometry x="320" y="240" width="120" height="80" as="geometry" />
        </mxCell>
        <mxCell id="kSAwd3NwiPWOxCACqnkx-5" value="ChatsPersist" style="verticalAlign=top;align=left;spacingTop=8;spacingLeft=2;spacingRight=12;shape=cube;size=10;direction=south;fontStyle=4;html=1;whiteSpace=wrap;" vertex="1" parent="1">
          <mxGeometry x="440" y="440" width="120" height="80" as="geometry" />
        </mxCell>
        <mxCell id="kSAwd3NwiPWOxCACqnkx-6" value="AuthService" style="verticalAlign=top;align=left;spacingTop=8;spacingLeft=2;spacingRight=12;shape=cube;size=10;direction=south;fontStyle=4;html=1;whiteSpace=wrap;" vertex="1" parent="1">
          <mxGeometry x="200" y="440" width="120" height="80" as="geometry" />
        </mxCell>
        <mxCell id="kSAwd3NwiPWOxCACqnkx-9" value="Send" style="html=1;verticalAlign=bottom;startArrow=oval;startFill=1;endArrow=block;startSize=8;edgeStyle=elbowEdgeStyle;elbow=vertical;curved=0;rounded=0;entryX=0.029;entryY=0.726;entryDx=0;entryDy=0;entryPerimeter=0;exitX=0.998;exitY=0.726;exitDx=0;exitDy=0;exitPerimeter=0;" edge="1" parent="1" source="kSAwd3NwiPWOxCACqnkx-1" target="kSAwd3NwiPWOxCACqnkx-2">
          <mxGeometry width="60" relative="1" as="geometry">
            <mxPoint x="370" y="130" as="sourcePoint" />
            <mxPoint x="330" y="290" as="targetPoint" />
          </mxGeometry>
        </mxCell>
        <mxCell id="kSAwd3NwiPWOxCACqnkx-11" value="Receive" style="html=1;verticalAlign=bottom;startArrow=oval;startFill=1;endArrow=block;startSize=8;edgeStyle=elbowEdgeStyle;elbow=vertical;curved=0;rounded=0;entryX=1.029;entryY=0.324;entryDx=0;entryDy=0;entryPerimeter=0;exitX=-0.002;exitY=0.324;exitDx=0;exitDy=0;exitPerimeter=0;" edge="1" parent="1" source="kSAwd3NwiPWOxCACqnkx-2" target="kSAwd3NwiPWOxCACqnkx-1">
          <mxGeometry width="60" relative="1" as="geometry">
            <mxPoint x="363" y="130" as="sourcePoint" />
            <mxPoint x="363" y="252" as="targetPoint" />
          </mxGeometry>
        </mxCell>
        <mxCell id="kSAwd3NwiPWOxCACqnkx-12" value="Request Auth" style="html=1;verticalAlign=bottom;startArrow=oval;startFill=1;endArrow=block;startSize=8;edgeStyle=elbowEdgeStyle;elbow=vertical;curved=0;rounded=0;entryX=0;entryY=0;entryDx=0;entryDy=55;entryPerimeter=0;exitX=0;exitY=0;exitDx=45;exitDy=120;exitPerimeter=0;" edge="1" parent="1" source="kSAwd3NwiPWOxCACqnkx-2" target="kSAwd3NwiPWOxCACqnkx-6">
          <mxGeometry width="60" relative="1" as="geometry">
            <mxPoint x="363" y="130" as="sourcePoint" />
            <mxPoint x="363" y="252" as="targetPoint" />
            <Array as="points">
              <mxPoint x="290" y="285" />
            </Array>
          </mxGeometry>
        </mxCell>
        <mxCell id="kSAwd3NwiPWOxCACqnkx-13" value="RequestPersitence" style="html=1;verticalAlign=bottom;startArrow=oval;startFill=1;endArrow=block;startSize=8;edgeStyle=elbowEdgeStyle;elbow=vertical;curved=0;rounded=0;entryX=-0.002;entryY=0.692;entryDx=0;entryDy=0;entryPerimeter=0;exitX=1.019;exitY=0.261;exitDx=0;exitDy=0;exitPerimeter=0;" edge="1" parent="1" source="kSAwd3NwiPWOxCACqnkx-2" target="kSAwd3NwiPWOxCACqnkx-5">
          <mxGeometry width="60" relative="1" as="geometry">
            <mxPoint x="354" y="330" as="sourcePoint" />
            <mxPoint x="275" y="450" as="targetPoint" />
          </mxGeometry>
        </mxCell>
        <mxCell id="kSAwd3NwiPWOxCACqnkx-15" value="Return Auth" style="html=1;verticalAlign=bottom;startArrow=oval;startFill=1;endArrow=block;startSize=8;edgeStyle=elbowEdgeStyle;elbow=vertical;curved=0;rounded=0;entryX=1.042;entryY=0.614;entryDx=0;entryDy=0;entryPerimeter=0;exitX=0.508;exitY=-0.006;exitDx=0;exitDy=0;exitPerimeter=0;" edge="1" parent="1" source="kSAwd3NwiPWOxCACqnkx-6" target="kSAwd3NwiPWOxCACqnkx-2">
          <mxGeometry width="60" relative="1" as="geometry">
            <mxPoint x="330" y="295" as="sourcePoint" />
            <mxPoint x="275" y="450" as="targetPoint" />
            <Array as="points">
              <mxPoint x="350" y="480" />
            </Array>
          </mxGeometry>
        </mxCell>
      </root>
    </mxGraphModel>
  </diagram>
  <diagram id="G7Q7wf6VQCP1p6xKySuT" name="Processo">
    <mxGraphModel dx="1100" dy="699" grid="1" gridSize="10" guides="1" tooltips="1" connect="1" arrows="1" fold="1" page="1" pageScale="1" pageWidth="850" pageHeight="1100" math="0" shadow="0">
      <root>
        <mxCell id="0" />
        <mxCell id="1" parent="0" />
        <mxCell id="5k-e8To36rnUq6xEAi3b-3" value="&lt;p style=&quot;margin:0px;margin-top:4px;text-align:center;&quot;&gt;&lt;i&gt;&amp;lt;&amp;lt;Interface&amp;gt;&amp;gt;&lt;/i&gt;&lt;br&gt;&lt;b&gt;Servidor&lt;/b&gt;&lt;/p&gt;&lt;hr size=&quot;1&quot;&gt;&lt;p style=&quot;margin:0px;margin-left:4px;&quot;&gt;+ chats: List&amp;lt;Chat&amp;gt;&lt;/p&gt;&lt;p style=&quot;margin:0px;margin-left:4px;&quot;&gt;+ field2: Type&lt;/p&gt;&lt;hr size=&quot;1&quot;&gt;&lt;p style=&quot;margin:0px;margin-left:4px;&quot;&gt;+ method1(Type): Type&lt;br&gt;+ method2(Type, Type): Type&lt;/p&gt;" style="verticalAlign=top;align=left;overflow=fill;fontSize=12;fontFamily=Helvetica;html=1;whiteSpace=wrap;" vertex="1" parent="1">
          <mxGeometry x="80" y="155" width="190" height="140" as="geometry" />
        </mxCell>
        <mxCell id="5k-e8To36rnUq6xEAi3b-4" value="&lt;p style=&quot;margin:0px;margin-top:4px;text-align:center;&quot;&gt;&lt;b&gt;Chat&lt;/b&gt;&lt;/p&gt;&lt;hr size=&quot;1&quot;&gt;&lt;p style=&quot;margin:0px;margin-left:4px;&quot;&gt;+ messages: List&amp;lt;Message&amp;gt;&lt;/p&gt;&lt;p style=&quot;margin:0px;margin-left:4px;&quot;&gt;+ observers: List&amp;lt;Observer&amp;gt;&lt;/p&gt;&lt;p style=&quot;margin:0px;margin-left:4px;&quot;&gt;+ users: List&amp;lt;User&amp;gt;&lt;/p&gt;&lt;hr size=&quot;1&quot;&gt;&lt;p style=&quot;margin:0px;margin-left:4px;&quot;&gt;+ addMessage(Message): void&lt;/p&gt;&lt;p style=&quot;margin:0px;margin-left:4px;&quot;&gt;+ addObserver(Obsever): void&lt;/p&gt;&lt;p style=&quot;margin:0px;margin-left:4px;&quot;&gt;+ removeObserver(Observer): void&lt;/p&gt;&lt;p style=&quot;margin:0px;margin-left:4px;&quot;&gt;+ addUser(User): void&lt;/p&gt;&lt;p style=&quot;margin:0px;margin-left:4px;&quot;&gt;+ removeUser(User): void&lt;/p&gt;" style="verticalAlign=top;align=left;overflow=fill;fontSize=12;fontFamily=Helvetica;html=1;whiteSpace=wrap;" vertex="1" parent="1">
          <mxGeometry x="320" y="140" width="200" height="170" as="geometry" />
        </mxCell>
        <mxCell id="5k-e8To36rnUq6xEAi3b-30" style="edgeStyle=orthogonalEdgeStyle;rounded=0;orthogonalLoop=1;jettySize=auto;html=1;exitX=0.5;exitY=0;exitDx=0;exitDy=0;entryX=0.5;entryY=1;entryDx=0;entryDy=0;" edge="1" parent="1" source="5k-e8To36rnUq6xEAi3b-5" target="5k-e8To36rnUq6xEAi3b-6">
          <mxGeometry relative="1" as="geometry" />
        </mxCell>
        <mxCell id="5k-e8To36rnUq6xEAi3b-31" value="1" style="edgeLabel;html=1;align=center;verticalAlign=middle;resizable=0;points=[];" vertex="1" connectable="0" parent="5k-e8To36rnUq6xEAi3b-30">
          <mxGeometry x="0.7118" relative="1" as="geometry">
            <mxPoint x="10" as="offset" />
          </mxGeometry>
        </mxCell>
        <mxCell id="5k-e8To36rnUq6xEAi3b-32" value="0...n" style="edgeLabel;html=1;align=center;verticalAlign=middle;resizable=0;points=[];" vertex="1" connectable="0" parent="5k-e8To36rnUq6xEAi3b-30">
          <mxGeometry x="-0.7043" y="-1" relative="1" as="geometry">
            <mxPoint x="-21" as="offset" />
          </mxGeometry>
        </mxCell>
        <mxCell id="5k-e8To36rnUq6xEAi3b-5" value="&lt;p style=&quot;margin:0px;margin-top:4px;text-align:center;&quot;&gt;&lt;b&gt;Message&lt;/b&gt;&lt;/p&gt;&lt;hr size=&quot;1&quot;&gt;&lt;p style=&quot;margin:0px;margin-left:4px;&quot;&gt;+ text: String&lt;/p&gt;&lt;p style=&quot;margin:0px;margin-left:4px;&quot;&gt;+ date: LocalDate&lt;/p&gt;&lt;hr size=&quot;1&quot;&gt;&lt;p style=&quot;margin:0px;margin-left:4px;&quot;&gt;+ method(): Type&lt;/p&gt;" style="verticalAlign=top;align=left;overflow=fill;fontSize=12;fontFamily=Helvetica;html=1;whiteSpace=wrap;" vertex="1" parent="1">
          <mxGeometry x="640" y="160" width="200" height="90" as="geometry" />
        </mxCell>
        <mxCell id="5k-e8To36rnUq6xEAi3b-6" value="&lt;p style=&quot;margin:0px;margin-top:4px;text-align:center;&quot;&gt;&lt;b&gt;User&lt;/b&gt;&lt;/p&gt;&lt;hr size=&quot;1&quot;&gt;&lt;p style=&quot;margin:0px;margin-left:4px;&quot;&gt;+ name: String&lt;/p&gt;&lt;p style=&quot;margin:0px;margin-left:4px;&quot;&gt;+ password: String&lt;/p&gt;&lt;hr size=&quot;1&quot;&gt;&lt;p style=&quot;margin:0px;margin-left:4px;&quot;&gt;+ method(): Type&lt;/p&gt;" style="verticalAlign=top;align=left;overflow=fill;fontSize=12;fontFamily=Helvetica;html=1;whiteSpace=wrap;" vertex="1" parent="1">
          <mxGeometry x="640" width="200" height="90" as="geometry" />
        </mxCell>
        <mxCell id="5k-e8To36rnUq6xEAi3b-8" value="&lt;p style=&quot;margin:0px;margin-top:4px;text-align:center;&quot;&gt;&lt;i&gt;&amp;lt;&amp;lt;Interface&amp;gt;&amp;gt;&lt;/i&gt;&lt;br&gt;&lt;b&gt;Observer&lt;/b&gt;&lt;/p&gt;&lt;p style=&quot;margin:0px;margin-left:4px;&quot;&gt;&lt;br&gt;&lt;/p&gt;&lt;hr size=&quot;1&quot;&gt;&lt;p style=&quot;margin:0px;margin-left:4px;&quot;&gt;+ update(String): void&lt;br&gt;&lt;/p&gt;" style="verticalAlign=top;align=left;overflow=fill;fontSize=12;fontFamily=Helvetica;html=1;whiteSpace=wrap;" vertex="1" parent="1">
          <mxGeometry x="640" y="320" width="200" height="80" as="geometry" />
        </mxCell>
        <mxCell id="5k-e8To36rnUq6xEAi3b-10" value="&lt;p style=&quot;margin:0px;margin-top:4px;text-align:center;&quot;&gt;&lt;br&gt;&lt;b&gt;ObserverImpl&lt;/b&gt;&lt;/p&gt;" style="verticalAlign=top;align=left;overflow=fill;fontSize=12;fontFamily=Helvetica;html=1;whiteSpace=wrap;" vertex="1" parent="1">
          <mxGeometry x="960" y="320" width="160" height="80" as="geometry" />
        </mxCell>
        <mxCell id="5k-e8To36rnUq6xEAi3b-11" value="" style="endArrow=block;dashed=1;endFill=0;endSize=12;html=1;rounded=0;entryX=1;entryY=0.5;entryDx=0;entryDy=0;" edge="1" parent="1" source="5k-e8To36rnUq6xEAi3b-10" target="5k-e8To36rnUq6xEAi3b-8">
          <mxGeometry width="160" relative="1" as="geometry">
            <mxPoint x="340" y="790" as="sourcePoint" />
            <mxPoint x="500" y="790" as="targetPoint" />
            <Array as="points" />
          </mxGeometry>
        </mxCell>
        <mxCell id="5k-e8To36rnUq6xEAi3b-12" value="Implements" style="edgeLabel;html=1;align=center;verticalAlign=middle;resizable=0;points=[];" vertex="1" connectable="0" parent="5k-e8To36rnUq6xEAi3b-11">
          <mxGeometry x="-0.05" y="-5" relative="1" as="geometry">
            <mxPoint as="offset" />
          </mxGeometry>
        </mxCell>
        <mxCell id="5k-e8To36rnUq6xEAi3b-18" value="Possui" style="endArrow=open;html=1;endSize=12;startArrow=diamondThin;startSize=14;startFill=0;edgeStyle=orthogonalEdgeStyle;rounded=0;entryX=0;entryY=0.5;entryDx=0;entryDy=0;exitX=1.026;exitY=0.389;exitDx=0;exitDy=0;exitPerimeter=0;" edge="1" parent="1" source="5k-e8To36rnUq6xEAi3b-4" target="5k-e8To36rnUq6xEAi3b-5">
          <mxGeometry relative="1" as="geometry">
            <mxPoint x="430" y="210" as="sourcePoint" />
            <mxPoint x="590" y="210" as="targetPoint" />
          </mxGeometry>
        </mxCell>
        <mxCell id="5k-e8To36rnUq6xEAi3b-19" value="1" style="edgeLabel;resizable=0;html=1;align=left;verticalAlign=top;" connectable="0" vertex="1" parent="5k-e8To36rnUq6xEAi3b-18">
          <mxGeometry x="-1" relative="1" as="geometry" />
        </mxCell>
        <mxCell id="5k-e8To36rnUq6xEAi3b-20" value="0...n" style="edgeLabel;resizable=0;html=1;align=right;verticalAlign=top;" connectable="0" vertex="1" parent="5k-e8To36rnUq6xEAi3b-18">
          <mxGeometry x="1" relative="1" as="geometry" />
        </mxCell>
        <mxCell id="5k-e8To36rnUq6xEAi3b-21" value="Possui" style="endArrow=open;html=1;endSize=12;startArrow=diamondThin;startSize=14;startFill=0;edgeStyle=orthogonalEdgeStyle;rounded=0;exitX=0;exitY=0.5;exitDx=0;exitDy=0;entryX=0.5;entryY=1;entryDx=0;entryDy=0;" edge="1" parent="1" source="5k-e8To36rnUq6xEAi3b-8" target="5k-e8To36rnUq6xEAi3b-4">
          <mxGeometry relative="1" as="geometry">
            <mxPoint x="460" y="310" as="sourcePoint" />
            <mxPoint x="530" y="390" as="targetPoint" />
            <Array as="points">
              <mxPoint x="415" y="360" />
            </Array>
          </mxGeometry>
        </mxCell>
        <mxCell id="5k-e8To36rnUq6xEAi3b-22" value="0..n" style="edgeLabel;resizable=0;html=1;align=left;verticalAlign=top;" connectable="0" vertex="1" parent="5k-e8To36rnUq6xEAi3b-21">
          <mxGeometry x="-1" relative="1" as="geometry" />
        </mxCell>
        <mxCell id="5k-e8To36rnUq6xEAi3b-23" value="1" style="edgeLabel;resizable=0;html=1;align=right;verticalAlign=top;" connectable="0" vertex="1" parent="5k-e8To36rnUq6xEAi3b-21">
          <mxGeometry x="1" relative="1" as="geometry">
            <mxPoint x="10" y="10" as="offset" />
          </mxGeometry>
        </mxCell>
        <mxCell id="5k-e8To36rnUq6xEAi3b-25" value="0...n" style="edgeLabel;html=1;align=center;verticalAlign=middle;resizable=0;points=[];" vertex="1" connectable="0" parent="5k-e8To36rnUq6xEAi3b-21">
          <mxGeometry x="-0.913" y="3" relative="1" as="geometry">
            <mxPoint x="-18" y="7" as="offset" />
          </mxGeometry>
        </mxCell>
        <mxCell id="5k-e8To36rnUq6xEAi3b-26" value="Possui" style="endArrow=open;html=1;endSize=12;startArrow=diamondThin;startSize=14;startFill=0;edgeStyle=orthogonalEdgeStyle;rounded=0;exitX=0;exitY=0.25;exitDx=0;exitDy=0;entryX=0.5;entryY=0;entryDx=0;entryDy=0;" edge="1" parent="1" source="5k-e8To36rnUq6xEAi3b-6" target="5k-e8To36rnUq6xEAi3b-4">
          <mxGeometry relative="1" as="geometry">
            <mxPoint x="650" y="370" as="sourcePoint" />
            <mxPoint x="425" y="320" as="targetPoint" />
            <Array as="points">
              <mxPoint x="415" y="23" />
            </Array>
          </mxGeometry>
        </mxCell>
        <mxCell id="5k-e8To36rnUq6xEAi3b-28" value="1" style="edgeLabel;resizable=0;html=1;align=right;verticalAlign=top;" connectable="0" vertex="1" parent="5k-e8To36rnUq6xEAi3b-26">
          <mxGeometry x="1" relative="1" as="geometry">
            <mxPoint x="10" y="10" as="offset" />
          </mxGeometry>
        </mxCell>
        <mxCell id="5k-e8To36rnUq6xEAi3b-29" value="0...n" style="edgeLabel;html=1;align=center;verticalAlign=middle;resizable=0;points=[];" vertex="1" connectable="0" parent="5k-e8To36rnUq6xEAi3b-26">
          <mxGeometry x="-0.913" y="3" relative="1" as="geometry">
            <mxPoint x="-18" y="7" as="offset" />
          </mxGeometry>
        </mxCell>
      </root>
    </mxGraphModel>
  </diagram>
</mxfile>
